<?xml version="1.0" encoding="UTF-8"?>
<svg width="72px" height="22px" viewBox="0 0 72 22" version="1.1" xmlns="http://www.w3.org/2000/svg" xmlns:xlink="http://www.w3.org/1999/xlink">
    <title>-mockplus-</title>
    <defs>
        <polygon id="path-1" points="0 21.2542466 71.7831111 21.2542466 71.7831111 -0.000147538485 0 -0.000147538485"></polygon>
    </defs>
    <g id="页面-1" stroke="none" stroke-width="1" fill="none" fill-rule="evenodd">
        <g id="导航栏-基础版" transform="translate(-32.000000, -12.000000)">
            <g id="编组" transform="translate(32.000000, 12.000000)">
                <path d="M32.4112,19.0300744 L32.3999407,19.0690246 L32.4112,19.0578117 C32.9303111,19.4248874 33.5946074,19.9530752 33.9240889,20.2921186 L33.6509037,20.5756876 C33.3658667,20.2534636 32.7851259,19.7639309 32.2826074,19.3968551 C32.0704593,19.8250118 31.6126815,20.2366442 30.6520889,20.5535568 C30.6023111,20.4644436 30.4846815,20.3145445 30.3954963,20.2366442 C31.4953481,19.9197315 31.8749037,19.4638376 31.992237,19.0300744 L30.3729778,19.0300744 L30.3729778,18.6629987 L32.0479407,18.6629987 L32.0479407,18.5629676 L32.0479407,17.8680613 L31.1714963,17.8680613 C31.0319407,18.0513041 30.8754963,18.2180226 30.7249778,18.3513974 C30.6467556,18.2903165 30.4737185,18.1902854 30.3789037,18.1401223 C30.7415704,17.8565533 31.054163,17.4283966 31.2328296,16.9781092 L31.6236444,17.0725338 C31.5623111,17.2171215 31.4900148,17.3673157 31.4058667,17.506297 L33.9187556,17.506297 L33.9187556,17.8680613 L32.4556444,17.8680613 L32.4556444,18.5629676 L32.4556444,18.6629987 L34.1756444,18.6629987 L34.1756444,19.0300744 L32.4112,19.0300744 Z M34.4156444,20.6367685 L34.4156444,21.0318766 L29.6526815,21.0318766 L29.6526815,16.4664457 L34.2870519,16.4664457 L34.2870519,16.8612587 L30.0660148,16.8612587 L30.0660148,20.6367685 L34.4156444,20.6367685 Z" id="Fill-1" fill="#FFFFFF"></path>
                <path d="M43.0677333,18.0569696 C42.6825481,18.4237503 42.1299556,18.8076454 41.6271407,19.0690836 L41.6271407,20.7592845 C41.6271407,20.9985919 41.5658074,21.1039344 41.3758815,21.1709169 C41.1859556,21.2263913 40.8786963,21.2319978 40.4209185,21.2319978 C40.3986963,21.1151473 40.3320296,20.9596418 40.2757333,20.8483977 C40.6277333,20.8652171 40.985363,20.8593156 41.0855111,20.8540042 C41.1749926,20.8540042 41.2087704,20.8315784 41.2087704,20.7480716 L41.2087704,18.9076765 C41.5548444,18.7406629 41.9622519,18.4795198 42.2695111,18.2292946 L39.8179556,18.2292946 L39.8179556,17.8566123 L42.6825481,17.8566123 L42.7776593,17.8344816 L43.0677333,18.0569696 Z M38.7068444,18.3738823 C38.6010667,18.1180505 38.3717333,17.6898939 38.1877333,17.3729812 L38.5003259,17.2283935 C38.6902519,17.5396997 38.9249185,17.9513321 39.0366222,18.1903444 L38.7068444,18.3738823 Z M43.2520296,16.8501048 L43.2520296,17.2339999 L39.4609185,17.2339999 L39.4609185,18.4627004 C39.4609185,19.3137024 39.3379556,20.481322 38.5785481,21.2485221 C38.5115852,21.1597039 38.3551407,21.0095098 38.2659556,20.9596418 C38.7628444,20.4591912 38.9471407,19.8250708 39.0141037,19.2133763 C38.7572148,19.3859963 38.5059556,19.5415018 38.2715852,19.6804831 L38.1207704,19.3024895 C38.3664,19.1803276 38.7015111,18.9967898 39.0478815,18.7964325 C39.0529185,18.679582 39.0529185,18.568338 39.0529185,18.457094 L39.0529185,16.8501048 L41.0241778,16.8501048 C40.9628444,16.6500426 40.8846222,16.4219481 40.8120296,16.2328038 L41.2138074,16.1495921 C41.3145481,16.3664736 41.409363,16.6388297 41.4706963,16.8501048 L43.2520296,16.8501048 Z" id="Fill-3" fill="#FFFFFF"></path>
                <path d="M50.3631407,18.6407794 C50.5142519,19.0966733 50.7148444,19.5195186 50.9720296,19.8862993 C51.2120296,19.5304365 51.4019556,19.1134927 51.5302519,18.6407794 L50.3631407,18.6407794 Z M51.9824,18.3291781 C51.8372148,19.0857555 51.5690667,19.7083679 51.217363,20.2032119 C51.4852148,20.5092068 51.7984,20.759432 52.1501037,20.931757 C52.0552889,21.0093622 51.9435852,21.1486386 51.8816593,21.2486697 C51.5471407,21.0595253 51.2452148,20.8095951 50.9770667,20.4979938 C50.7261037,20.7927757 50.441363,21.0320832 50.1341037,21.2097195 C50.0784,21.1152949 49.9726222,20.9763136 49.8884741,20.9040198 C50.1960296,20.7370062 50.4858074,20.4979938 50.7426963,20.1976055 C50.4304,19.747318 50.1841778,19.2132287 50.0001778,18.6407794 L49.8609185,18.6407794 L49.8609185,21.2430632 L49.4695111,21.2430632 L49.4695111,16.3831455 L51.8259556,16.3831455 L51.8259556,17.450734 C51.8259556,17.6623042 51.7758815,17.7676466 51.6084741,17.8290226 C51.4298074,17.8844971 51.1501037,17.8844971 50.7317333,17.8844971 C50.7148444,17.7735482 50.6535111,17.6342718 50.5975111,17.5342408 C50.9382519,17.5398472 51.2289185,17.5398472 51.3121778,17.5342408 C51.4019556,17.5342408 51.4238815,17.51211 51.4238815,17.4451275 L51.4238815,16.7667456 L49.8609185,16.7667456 L49.8609185,18.2568843 L51.6698074,18.2568843 L51.7421037,18.2459664 L51.9824,18.3291781 Z M47.7501037,17.6623042 L48.5930667,17.6623042 L48.5930667,16.7502212 L47.7501037,16.7502212 L47.7501037,17.6623042 Z M48.5927704,18.9798228 L48.5927704,18.0456091 L47.7501037,18.0456091 L47.7501037,18.351604 C47.7501037,18.5407483 47.7444741,18.7576299 47.7388444,18.9798228 L48.5927704,18.9798228 Z M48.9782519,20.7482191 C48.9782519,20.9707071 48.9338074,21.0931641 48.7886222,21.1654579 C48.6490667,21.2377518 48.4256593,21.2430632 48.0517333,21.2430632 C48.0401778,21.1374256 47.9847704,20.9538878 47.9284741,20.8482502 C48.185363,20.8538567 48.4197333,20.8538567 48.4869926,20.8482502 C48.5652148,20.8426437 48.5927704,20.820513 48.5927704,20.7426127 L48.5927704,19.3746358 L47.7166222,19.3746358 C47.6662519,20.030887 47.5545481,20.7257933 47.2976593,21.2486697 C47.2250667,21.1819823 47.0576593,21.0875576 46.9572148,21.0483124 C47.3424,20.2698993 47.3702519,19.1689672 47.3702519,18.351604 L47.3702519,16.3663261 L48.9782519,16.3663261 L48.9782519,20.7482191 Z" id="Fill-5" fill="#FFFFFF"></path>
                <path d="M57.3793481,17.1671355 C57.6246815,17.4731303 57.9766815,17.7121427 58.4066074,17.8956805 C58.9313481,17.6844054 59.3891259,17.4176558 59.7189037,17.0892352 L57.4632,17.0892352 L57.3793481,17.1671355 Z M60.4054222,19.246838 C60.4054222,19.246838 60.4000889,19.3746063 60.3834963,19.4303759 C60.2658667,20.4368834 60.1375704,20.8538272 59.9476444,21.0261521 C59.8249778,21.1373961 59.7023111,21.1654284 59.4957926,21.1763463 C59.3337185,21.1819528 58.9986074,21.1819528 58.6694222,21.1595269 C58.6634963,21.0482829 58.6131259,20.8983838 58.5408296,20.7927462 C58.8925333,20.8260899 59.2439407,20.8316964 59.3840889,20.8316964 C59.4957926,20.8316964 59.562163,20.8260899 59.6240889,20.7815333 C59.7520889,20.6761908 59.8637926,20.3365572 59.9586074,19.6083073 L58.2670519,19.6083073 C57.9153481,20.5035708 57.228237,20.9706776 56.1340148,21.2318208 C56.0892741,21.1373961 55.9834963,20.9650712 55.9052741,20.8818595 C56.8880889,20.6924201 57.5079407,20.320328 57.826163,19.6083073 L56.290163,19.6083073 L56.290163,19.246838 L57.9544593,19.246838 C57.9992,19.0798244 58.0380148,18.8965816 58.0605333,18.6965194 L58.4904593,18.7298631 C58.4626074,18.9131059 58.4232,19.0913324 58.3846815,19.246838 L60.4054222,19.246838 Z M60.3609778,16.8835665 C60.0258667,17.3840171 59.5067556,17.7676171 58.8925333,18.0680055 C59.4729778,18.2459369 60.1651259,18.345968 60.908237,18.3905246 C60.8243852,18.4852443 60.7295704,18.6463563 60.6792,18.7629118 C59.8249778,18.690913 59.0489778,18.5407188 58.4012741,18.2736741 C57.658163,18.5628496 56.8208296,18.7298631 56.0113481,18.8298942 C55.9834963,18.7239616 55.9106074,18.5628496 55.8439407,18.4684249 C56.5529778,18.4017375 57.2845333,18.2680677 57.9429037,18.0570876 C57.6196444,17.8788611 57.3399407,17.6622747 57.1114963,17.4008365 C56.8880889,17.5843743 56.6312,17.7510928 56.3464593,17.9122048 C56.290163,17.8177802 56.1784593,17.6731925 56.0892741,17.6065051 C56.8712,17.2116921 57.4237926,16.6389477 57.7085333,16.1550215 L58.1443852,16.2441347 C58.0380148,16.4055418 57.9209778,16.5719652 57.7867556,16.7333724 L60.0374222,16.7333724 L60.1097185,16.7112416 L60.3609778,16.8835665 Z" id="Fill-7" fill="#FFFFFF"></path>
                <mask id="mask-2" fill="white">
                    <use xlink:href="#path-1"></use>
                </mask>
                <g id="Clip-10"></g>
                <path d="M65.3277037,17.0281542 L69.0743704,17.0281542 L69.0743704,16.6112105 L65.3277037,16.6112105 L65.3277037,17.0281542 Z M67.0198519,18.5852754 C66.6456296,19.2748703 66.1988148,19.9585636 65.752,20.4926529 L68.5496296,20.2813778 C68.3262222,19.9308264 68.074963,19.5749636 67.8515556,19.2689688 L68.2201481,19.074513 C68.6894815,19.6971254 69.2533333,20.5091773 69.5211852,21.0208407 L69.1357037,21.2542466 C69.0465185,21.0875281 68.9348148,20.8818595 68.7955556,20.6593714 C65.741037,20.926121 65.4174815,20.9482518 65.1940741,21.037365 C65.1659259,20.9373339 65.0933333,20.7092394 65.0373333,20.5814711 C65.1605926,20.5481274 65.2891852,20.3979332 65.4622222,20.1701338 C65.6293333,19.9806944 66.0871111,19.2970011 66.4447407,18.5852754 L64.7197037,18.5852754 L64.7197037,18.1683317 L69.6494815,18.1683317 L69.6494815,18.5852754 L67.0198519,18.5852754 Z" id="Fill-9" fill="#FFFFFF" mask="url(#mask-2)"></path>
                <path d="M10.979763,9.92016315 C10.9871704,9.92104838 11.749837,10.011637 12.8772444,10.2659934 C13.8944296,10.4952682 15.8488,10.6271676 17.5107259,8.93608145 C17.7711704,8.67080725 18.0170963,8.17684841 17.9252444,7.58610431 C17.8630222,7.18745533 17.6245037,6.62474355 16.8375407,6.20720963 C15.8736889,5.6964314 15.2802074,4.57720445 15.2283556,4.43114135 C15.1154667,4.05934437 14.8292444,3.11480299 13.4742815,2.18117945 C13.4766519,2.03511635 13.4674667,1.86308648 13.4342815,1.68367968 C13.3000593,0.962511568 12.8479111,0.472388721 12.1613926,0.305080079 C11.3125037,0.0976409694 10.7130963,0.405111172 10.3690963,0.806415851 C9.35428148,0.543207194 6.86835556,-0.0156685871 4.78776296,0.202098217 C4.45087407,0.237507453 4.20672593,0.537895809 4.24198519,0.873103246 C4.27754074,1.20860576 4.57946667,1.45204426 4.91576296,1.41663503 C7.30035556,1.16699991 10.4476148,2.09383667 10.4793185,2.10298406 C10.6399111,2.15078653 10.8064296,2.1537373 10.9519111,2.07111574 C11.0973926,1.98849419 11.1960593,1.8731191 11.2366519,1.71112184 C11.3208,1.48273227 11.5335407,1.40866795 11.8692444,1.49099442 C12.349837,1.60813998 12.2541333,2.24816193 12.2307259,2.37091395 C12.1794667,2.6226146 12.2914667,2.87933157 12.5110222,3.01329651 C13.7465778,3.76780832 13.9622815,4.47982905 14.0582815,4.79644664 C14.1634667,5.14375223 14.9492444,6.58962939 16.2612444,7.2851258 C16.4485037,7.38427167 16.6787259,7.54980985 16.7136889,7.77288804 C16.7365037,7.92042652 16.6686519,8.04671946 16.6342815,8.0821287 C15.4514667,9.28574766 14.0852444,9.28663289 13.1480593,9.0750627 C11.9510222,8.80506728 11.1551704,8.7112328 11.1110222,8.70621649 C8.7290963,8.47222045 6.11724444,9.51620277 3.94598519,11.5708237 C1.32939259,14.0465195 -0.141718519,17.4493471 0.0105777778,20.6724729 C0.0262814815,20.9994181 0.297096296,21.2540696 0.622725926,21.2540696 C0.632503704,21.2540696 0.641985185,21.2540696 0.652059259,21.2534794 C0.990133333,21.2375453 1.25146667,20.9519107 1.23546667,20.6149328 C1.09946667,17.7408832 2.42835556,14.6909676 4.79042963,12.4560546 C6.70302222,10.6460525 8.96287407,9.72187142 10.979763,9.92016315" id="Fill-11" fill="#FFFFFF" mask="url(#mask-2)"></path>
                <path d="M25.1371852,0.582009816 C25.1211852,0.245031916 24.837037,-0.0164062795 24.496,0.000708184728 C24.1576296,0.0166423411 23.8965926,0.302571925 23.9122963,0.639254748 C24.0485926,3.51359951 22.7197037,6.56351507 20.3573333,8.79842804 C18.4444444,10.6084302 16.1828148,11.5311359 14.168,11.3340244 C14.1602963,11.3334343 13.4041481,11.244321 12.2705185,10.9887844 C11.2536296,10.7592145 9.29925926,10.626725 7.63703704,12.3181061 C7.37659259,12.5836754 7.13096296,13.0776343 7.22251852,13.6683784 C7.28444444,14.0667323 7.52355556,14.629444 8.31051852,15.046978 C9.27437037,15.5583463 9.86785185,16.6772782 9.9197037,16.8233413 C10.0322963,17.1951383 10.3185185,18.1399748 11.6737778,19.0730081 C11.6714074,19.2193663 11.6802963,19.3911011 11.7134815,19.570803 C11.8477037,20.2919711 12.2998519,20.7817989 12.9863704,20.9494026 C13.834963,21.1565466 14.4346667,20.8496666 14.7786667,20.4477717 C15.6340741,20.6696696 17.5327407,21.1016623 19.354963,21.1016623 C19.6951111,21.1016623 20.0325926,21.0866134 20.3602963,21.0523845 C20.6971852,21.0169752 20.9413333,20.7165869 20.9060741,20.3813794 C20.8705185,20.0458769 20.568,19.8024384 20.232,19.8381427 C17.8477037,20.0874828 14.7001481,19.160646 14.6687407,19.1514986 C14.3463704,19.0553035 14.005037,19.2367759 13.9066667,19.5578196 C13.8891852,19.6132941 13.7783704,19.8856501 13.2788148,19.7634882 C12.7979259,19.6460476 12.8939259,19.0063207 12.917037,18.8832736 C12.9685926,18.6318681 12.8565926,18.3751511 12.637037,18.2411862 C11.4014815,17.4863793 11.1854815,16.7746536 11.0894815,16.458036 C10.984,16.1110255 10.1985185,14.6648533 8.88681481,13.9690618 C8.69925926,13.8699159 8.46874074,13.7046728 8.43437037,13.4815946 C8.41155556,13.3340561 8.47911111,13.2074681 8.51348148,13.172354 C9.69659259,11.968735 11.0622222,11.9681449 11.9997037,12.179715 C13.1967407,12.4494154 13.9928889,12.5432499 14.0367407,12.5482662 C16.4201481,12.7825573 19.0308148,11.7382799 21.2020741,9.68365895 C23.8186667,7.20796318 25.2897778,3.80543064 25.1371852,0.582009816" id="Fill-12" fill="#FFFFFF" mask="url(#mask-2)"></path>
                <path d="M31.4846815,4.03562018 L28.0224593,4.03562018 L28.0224593,5.6343472 L31.4846815,5.6343472 L31.4846815,9.04278128 C30.078163,9.56801829 28.6366815,10.1053535 27.6740148,10.4207907 L27.5193481,10.4712489 L28.2197926,12.0705661 L29.1599407,11.6787039 C29.8879407,11.3759549 30.6894222,11.0425179 31.4846815,10.7011139 L31.4846815,13.5955239 L33.1323852,13.5955239 L33.1323852,0.881837525 L31.4846815,0.881837525 L31.4846815,4.03562018 Z" id="Fill-13" fill="#FFFFFF" mask="url(#mask-2)"></path>
                <path d="M39.6846222,9.08075769 L39.4626963,8.9243669 L39.4508444,9.19495248 C39.3504,11.5065855 39.2526222,11.9129064 38.7966222,11.9129064 L37.0795852,11.9129064 C36.6446222,11.9129064 36.5664,11.9129064 36.5664,11.2053119 L36.5664,6.93348258 C37.867437,6.21497016 39.4964741,5.28193678 40.729363,4.35716555 L40.8603259,4.25890492 L39.6218074,2.92427179 L39.5130667,3.02312257 C38.8075852,3.66432483 37.7432889,4.44686895 36.5664,5.19164323 L36.5664,0.882044079 L34.9189926,0.882044079 L34.9189926,11.1914433 C34.9189926,12.9480365 35.3877333,13.4836012 36.9249185,13.4836012 L38.923437,13.4836012 C40.5456593,13.4836012 40.8751407,12.3460794 40.9992889,9.79720457 L41.0055111,9.67504271 L40.8864,9.64642024 C40.5581037,9.56792977 40.0078815,9.30885219 39.6846222,9.08075769" id="Fill-14" fill="#FFFFFF" mask="url(#mask-2)"></path>
                <path d="M64.112563,3.83334492 C64.2213037,4.00035848 64.3173037,4.1641262 64.4044148,4.33025453 L59.6938963,4.33025453 C60.1033778,4.22579729 61.0491556,4.10865173 64.112563,3.83334492 L64.112563,3.83334492 Z M61.1549333,7.55367535 L63.3919704,7.55367535 L63.3919704,7.07801128 L61.1549333,7.07801128 L61.1549333,7.55367535 Z M61.1552296,5.98416095 L63.3922667,5.98416095 L63.3922667,5.55010273 L61.1552296,5.55010273 L61.1552296,5.98416095 Z M65.8127111,3.95904771 C65.8127111,4.84663923 66.0257481,5.29191038 66.6696,5.47928426 L65.8127111,5.47928426 L65.8127111,8.86470233 C65.8127111,10.1642213 66.2470815,10.5401494 67.7484148,10.5401494 L70.0144889,10.5401494 C71.2002667,10.5401494 71.5898963,10.0984191 71.7519704,8.57198598 L71.7656,8.44421765 L71.640563,8.41323457 C71.3170074,8.33267856 70.8390815,8.1553373 70.5904889,7.98596312 L70.3733037,7.83812955 L70.3590815,8.09986283 C70.3013037,9.16568084 70.1970074,9.16568084 69.8876741,9.16568084 L67.9033778,9.16568084 C67.3478222,9.16568084 67.3478222,9.12584545 67.3478222,8.86470233 L67.3478222,8.15563237 C68.4221926,7.9130791 69.9134519,7.54334766 70.962637,7.06443774 L71.1513778,6.97857034 L70.1018963,5.87999878 L70.0032296,5.92986679 C69.408563,6.23202561 68.4704889,6.56192166 67.3478222,6.86437555 L67.3478222,5.58197104 C67.4719704,5.58875781 67.6056,5.59229873 67.7484148,5.59229873 L69.9442667,5.59229873 C71.1229333,5.59229873 71.5063407,5.16001097 71.6538963,3.66515104 L71.6672296,3.52764518 L71.530637,3.50521933 C71.1978963,3.45003993 70.7303407,3.26945283 70.5093037,3.11070142 L70.2897481,2.95283524 L70.274637,3.22224051 C70.2168593,4.26002622 70.1161185,4.26002622 69.8174519,4.26002622 L67.8891556,4.26002622 C67.3617481,4.26002622 67.3617481,4.22579729 67.3617481,3.95904771 L67.3617481,3.33525499 C68.8918222,3.00211309 70.0870815,2.65923365 70.9158222,2.31517391 L71.1181926,2.23107697 L70.0464889,1.14607895 L69.9513778,1.19063557 C69.3496,1.47184393 68.4133037,1.78551075 67.3617481,2.05875202 L67.3617481,0.657726566 L65.8127111,0.657726566 L65.8127111,3.72888767 C65.4408593,3.07735772 64.6624889,2.10684957 63.9122667,1.35971468 L63.8381926,1.28565036 L62.5217481,1.91475446 L62.6787852,2.06229294 C62.8479704,2.22104435 63.0144889,2.41372961 63.1768593,2.61202134 L61.2728593,2.74628136 C61.7021926,2.31871483 62.2340444,1.74301966 62.7167111,1.08883402 L62.8411556,0.920345069 L61.3039704,0.462385612 L61.2450074,0.562711782 C60.7054519,1.48187654 59.8790815,2.403697 59.6355259,2.6214638 C59.3901926,2.86549246 59.1913778,2.99503125 59.0091556,3.0289651 L58.8275259,3.06319403 L58.9001185,3.23227313 C59.0263407,3.52498948 59.2198222,4.09301265 59.272563,4.30310745 L59.3149333,4.47189148 L59.4755259,4.40284347 C59.5318222,4.37835208 59.5973037,4.355041 59.690637,4.33113977 L59.690637,10.5820503 L61.1552296,10.5820503 L61.1552296,8.63395214 L63.3919704,8.63395214 L63.3919704,9.2149587 C63.3919704,9.24889255 63.3896,9.26630209 63.3910815,9.2713184 C63.3807111,9.27367901 63.3561185,9.27781009 63.3036741,9.27840024 C63.1264889,9.29197378 62.5644148,9.29226886 61.9673778,9.27781009 L61.7324148,9.2724987 L61.8441185,9.51977321 C61.9658963,9.7888834 62.1173037,10.1235007 62.1552296,10.3985124 L62.1724148,10.5262807 L62.3018963,10.5262807 C63.2100444,10.5262807 63.8663407,10.5262807 64.282637,10.3483493 C64.7978963,10.1535985 64.898637,9.78534248 64.898637,9.2149587 L64.898637,4.36330316 L65.8127111,3.92540893 L65.8127111,3.95904771 Z" id="Fill-15" fill="#FFFFFF" mask="url(#mask-2)"></path>
                <path d="M67.1811556,10.9791649 L67.1340444,10.8699864 L65.6013037,11.1647683 L65.6688593,11.3308966 C65.9897481,12.121998 66.2753778,13.0426381 66.3636741,13.5702358 L66.3894519,13.7248561 L67.9808593,13.3630917 L67.9494519,13.2202745 C67.8143407,12.6073996 67.460563,11.6289244 67.1811556,10.9791649" id="Fill-16" fill="#FFFFFF" mask="url(#mask-2)"></path>
                <path d="M71.7092148,13.1017421 C71.3486222,12.3835247 70.5542519,11.3773122 69.9264,10.6989303 L69.8597333,10.6269315 L68.3512889,11.1686928 L68.4961778,11.3315753 C69.1684741,12.0866773 69.8629926,13.0849227 70.1471407,13.7057646 L70.2043259,13.8302871 L71.7829926,13.2489855 L71.7092148,13.1017421 Z" id="Fill-17" fill="#FFFFFF" mask="url(#mask-2)"></path>
                <path d="M64.2445333,10.9780141 L62.7734222,11.1001759 L62.8036444,11.2604027 C62.9467556,12.0305536 63.012237,12.9851276 63.012237,13.546069 L63.012237,13.7127874 L64.5891259,13.5227579 L64.5891259,13.3920388 C64.5891259,12.7891965 64.4572741,11.824885 64.2753481,11.0995858 L64.2445333,10.9780141 Z" id="Fill-18" fill="#FFFFFF" mask="url(#mask-2)"></path>
                <path d="M60.390637,10.7166349 C60.0261926,11.6316686 59.4344889,12.5278173 58.8836741,12.9999405 L58.7011556,13.1566264 L60.2404148,13.7907468 L60.3103407,13.7196332 C60.9150815,13.1041027 61.5109333,12.1371354 61.9047111,11.1329885 L61.9660444,10.9768928 L60.4383407,10.5968337 L60.390637,10.7166349 Z" id="Fill-19" fill="#FFFFFF" mask="url(#mask-2)"></path>
                <path d="M46.7961481,11.7386045 L52.9054815,11.7386045 L52.9054815,9.66804938 L46.7961481,9.66804938 L46.7961481,11.7386045 Z M45.0426667,8.17525499 L54.744,8.17525499 L54.744,13.7947008 L52.9054815,13.7947008 L52.9054815,13.2735949 L46.7961481,13.2735949 L46.7961481,13.7947008 L45.0426667,13.7947008 L45.0426667,8.17525499 Z M50.7134815,3.89398323 L50.7134815,5.42897363 L55.2248889,5.42897363 L55.2248889,7.02032373 L44.5048889,7.02032373 L44.5048889,5.42897363 L48.9315556,5.42897363 L48.9315556,3.89398323 L43.5997037,3.89398323 L43.5997037,2.31650175 L48.9315556,2.31650175 L48.9315556,0.584104862 L50.7134815,0.584104862 L50.7134815,2.31650175 L56.058963,2.31650175 L56.058963,3.89398323 L50.7134815,3.89398323 Z" id="Fill-20" fill="#FFFFFF" mask="url(#mask-2)"></path>
            </g>
        </g>
    </g>
</svg>